<svg width="43" height="24" viewBox="0 0 43 24" fill="none" xmlns="http://www.w3.org/2000/svg">
<mask id="mask0_2823_283" style="mask-type:alpha" maskUnits="userSpaceOnUse" x="0" y="0" width="24" height="24">
<rect width="24" height="24" fill="#C4C4C4"/>
</mask>
<g mask="url(#mask0_2823_283)">
<path d="M12.05 21.914H12.036C9.453 21.866 2 15.132 2 8.754C2 5.69 4.525 3 7.403 3C9.693 3 11.233 4.58 12.049 5.73C12.863 4.582 14.403 3 16.694 3C19.574 3 22.098 5.69 22.098 8.755C22.098 15.131 14.644 21.865 12.061 21.912H12.05V21.914ZM7.404 4.501C5.324 4.501 3.501 6.489 3.501 8.756C3.501 14.496 10.535 20.352 12.051 20.414C13.569 20.352 20.601 14.497 20.601 8.756C20.601 6.489 18.778 4.501 16.698 4.501C14.17 4.501 12.758 7.437 12.746 7.466C12.516 8.028 11.59 8.028 11.359 7.466C11.345 7.436 9.93401 4.501 7.40501 4.501H7.404Z" fill="#536471"/>
</g>
<path d="M34.7031 15.375C34.7031 15.0781 34.75 14.7812 34.8438 14.4844C34.9375 14.1823 35.0703 13.901 35.2422 13.6406C35.4193 13.3802 35.6354 13.1432 35.8906 12.9297C36.151 12.7161 36.4453 12.5469 36.7734 12.4219C36.2891 12.151 35.9036 11.8047 35.6172 11.3828C35.3307 10.9557 35.1875 10.4844 35.1875 9.96875C35.1875 9.55729 35.2656 9.17708 35.4219 8.82812C35.5833 8.47917 35.8047 8.17708 36.0859 7.92188C36.3672 7.66667 36.7005 7.46875 37.0859 7.32812C37.4714 7.18229 37.888 7.10938 38.3359 7.10938C38.7891 7.10938 39.2083 7.18229 39.5938 7.32812C39.9792 7.47396 40.3125 7.67448 40.5938 7.92969C40.875 8.1849 41.0938 8.48698 41.25 8.83594C41.4062 9.1849 41.4844 9.5625 41.4844 9.96875C41.4844 10.4844 41.3411 10.9557 41.0547 11.3828C40.7682 11.8047 40.388 12.151 39.9141 12.4219C40.237 12.5469 40.526 12.7161 40.7812 12.9297C41.0365 13.1432 41.25 13.3802 41.4219 13.6406C41.599 13.901 41.7344 14.1823 41.8281 14.4844C41.9219 14.7812 41.9688 15.0781 41.9688 15.375C41.9688 15.8646 41.8802 16.3125 41.7031 16.7188C41.526 17.125 41.276 17.474 40.9531 17.7656C40.6354 18.0521 40.2526 18.276 39.8047 18.4375C39.362 18.599 38.8724 18.6797 38.3359 18.6797C37.8047 18.6797 37.3177 18.599 36.875 18.4375C36.4323 18.276 36.0495 18.0521 35.7266 17.7656C35.4036 17.474 35.151 17.125 34.9688 16.7188C34.7917 16.3125 34.7031 15.8646 34.7031 15.375ZM36.0938 15.2656C36.0938 15.6146 36.1458 15.9297 36.25 16.2109C36.3594 16.4922 36.5104 16.7318 36.7031 16.9297C36.901 17.1276 37.138 17.2812 37.4141 17.3906C37.6953 17.4948 38.0052 17.5469 38.3438 17.5469C38.6719 17.5469 38.974 17.4922 39.25 17.3828C39.526 17.2734 39.763 17.1198 39.9609 16.9219C40.1641 16.724 40.3203 16.4844 40.4297 16.2031C40.5443 15.9219 40.6016 15.6094 40.6016 15.2656C40.6016 14.9531 40.5469 14.6615 40.4375 14.3906C40.3333 14.1146 40.1823 13.8724 39.9844 13.6641C39.7865 13.4557 39.5495 13.2917 39.2734 13.1719C38.9974 13.0521 38.6875 12.9922 38.3438 12.9922C38.0208 12.9922 37.7214 13.0495 37.4453 13.1641C37.1745 13.2734 36.9375 13.4297 36.7344 13.6328C36.5365 13.8307 36.3802 14.0703 36.2656 14.3516C36.151 14.6276 36.0938 14.9323 36.0938 15.2656ZM36.4922 10.0703C36.4922 10.3359 36.5391 10.5833 36.6328 10.8125C36.7318 11.0365 36.8646 11.2344 37.0312 11.4062C37.2031 11.5729 37.401 11.7057 37.625 11.8047C37.849 11.8984 38.0885 11.9453 38.3438 11.9453C38.599 11.9453 38.8385 11.8958 39.0625 11.7969C39.2917 11.6979 39.4896 11.5651 39.6562 11.3984C39.8229 11.2266 39.9557 11.0286 40.0547 10.8047C40.1536 10.5755 40.2031 10.3307 40.2031 10.0703C40.2031 9.79948 40.1536 9.54948 40.0547 9.32031C39.9609 9.09115 39.8307 8.89323 39.6641 8.72656C39.4974 8.5599 39.2995 8.42969 39.0703 8.33594C38.8464 8.23698 38.6042 8.1875 38.3438 8.1875C38.0677 8.1875 37.8151 8.23698 37.5859 8.33594C37.362 8.4349 37.1667 8.57031 37 8.74219C36.8385 8.90885 36.7135 9.10677 36.625 9.33594C36.5365 9.5651 36.4922 9.8099 36.4922 10.0703Z" fill="#536471"/>
</svg>
