<svg width="52" height="24" viewBox="0 0 52 24" fill="none" xmlns="http://www.w3.org/2000/svg">
<mask id="mask0_2823_273" style="mask-type:alpha" maskUnits="userSpaceOnUse" x="0" y="0" width="24" height="24">
<rect width="24" height="24" fill="#C4C4C4"/>
</mask>
<g mask="url(#mask0_2823_273)">
<path d="M13.95 2.01L9.802 2H9.8C5.426 2 2 5.427 2 9.80201C2 13.9 5.186 17.008 9.465 17.172V21C9.465 21.108 9.509 21.286 9.585 21.403C9.727 21.628 9.96899 21.75 10.217 21.75C10.355 21.75 10.494 21.712 10.619 21.632C10.883 21.464 17.092 17.492 18.707 16.126C20.609 14.516 21.747 12.156 21.75 9.81401V9.79701C21.744 5.43 18.32 2.01 13.95 2.009V2.01ZM17.737 14.982C16.603 15.942 12.875 18.387 10.965 19.625V16.438C10.965 16.024 10.63 15.688 10.215 15.688H9.819C6.159 15.688 3.501 13.212 3.501 9.80201C3.501 6.268 6.269 3.5 9.801 3.5L13.948 3.51H13.95C17.482 3.51 20.25 6.276 20.252 9.80601C20.249 11.716 19.31 13.65 17.738 14.982H17.737Z" fill="#536471"/>
</g>
<path d="M39.6562 18.5H38.375V8.82031C38.276 8.91927 38.1302 9.03385 37.9375 9.16406C37.75 9.28906 37.5365 9.41406 37.2969 9.53906C37.0625 9.66406 36.8125 9.78125 36.5469 9.89062C36.2865 10 36.0312 10.0859 35.7812 10.1484V8.85156C36.0625 8.77344 36.3594 8.66927 36.6719 8.53906C36.9896 8.40365 37.2995 8.25521 37.6016 8.09375C37.9089 7.92708 38.1979 7.75521 38.4688 7.57812C38.7396 7.39583 38.974 7.21875 39.1719 7.04688H39.6562V18.5ZM50.5938 12.8516C50.5938 13.7891 50.5078 14.6198 50.3359 15.3438C50.1693 16.0677 49.9245 16.6797 49.6016 17.1797C49.2839 17.6745 48.8906 18.0521 48.4219 18.3125C47.9583 18.5677 47.4297 18.6953 46.8359 18.6953C46.2734 18.6953 45.7708 18.5729 45.3281 18.3281C44.8906 18.0781 44.5208 17.7161 44.2188 17.2422C43.9167 16.7682 43.6875 16.1875 43.5312 15.5C43.375 14.8073 43.2969 14.0156 43.2969 13.125C43.2969 12.1458 43.3776 11.2812 43.5391 10.5312C43.7057 9.78125 43.9479 9.15365 44.2656 8.64844C44.5833 8.13802 44.9766 7.75521 45.4453 7.5C45.9193 7.23958 46.4609 7.10938 47.0703 7.10938C49.4193 7.10938 50.5938 9.02344 50.5938 12.8516ZM49.2812 12.9766C49.2812 9.78906 48.5234 8.19531 47.0078 8.19531C45.4089 8.19531 44.6094 9.81771 44.6094 13.0625C44.6094 16.0885 45.3932 17.6016 46.9609 17.6016C48.5078 17.6016 49.2812 16.0599 49.2812 12.9766Z" fill="#536471"/>
</svg>
