<svg width="43" height="24" viewBox="0 0 43 24" fill="none" xmlns="http://www.w3.org/2000/svg">
<mask id="mask0_2823_278" style="mask-type:alpha" maskUnits="userSpaceOnUse" x="0" y="0" width="24" height="24">
<rect width="24" height="24" fill="#C4C4C4"/>
</mask>
<g mask="url(#mask0_2823_278)">
<path d="M23.7585 15.7705C23.4665 15.4775 22.9915 15.4775 22.6985 15.7705L20.4785 17.9905V7.7505C20.4785 5.6825 18.7955 4.0005 16.7285 4.0005H10.8785C10.4645 4.0005 10.1285 4.3365 10.1285 4.7505C10.1285 5.1645 10.4645 5.5005 10.8785 5.5005H16.7285C17.9685 5.5005 18.9785 6.5105 18.9785 7.7505V17.9905L16.7585 15.7705C16.4655 15.4775 15.9905 15.4775 15.6985 15.7705C15.4065 16.0635 15.4045 16.5385 15.6985 16.8305L19.1985 20.3305C19.3435 20.4775 19.5355 20.5505 19.7285 20.5505C19.9215 20.5505 20.1115 20.4785 20.2585 20.3305L23.7585 16.8305C24.0525 16.5385 24.0525 16.0635 23.7585 15.7705ZM13.0985 19.0505H7.2485C6.0085 19.0505 4.9985 18.0405 4.9985 16.8005V6.5605L7.2185 8.7805C7.3665 8.9275 7.5585 9.00049 7.7505 9.00049C7.9425 9.00049 8.1345 8.9275 8.2805 8.7805C8.5735 8.4875 8.5735 8.01249 8.2805 7.7205L4.7805 4.2205C4.4875 3.9265 4.0125 3.9265 3.7205 4.2205L0.2205 7.7205C-0.0735 8.01249 -0.0735 8.4875 0.2205 8.7805C0.5145 9.0735 0.987501 9.0735 1.2805 8.7805L3.5005 6.5605V16.8005C3.5005 18.8685 5.1835 20.5505 7.2505 20.5505H13.1005C13.5145 20.5505 13.8505 20.2145 13.8505 19.8005C13.8505 19.3865 13.5135 19.0505 13.1005 19.0505H13.0985Z" fill="#536471"/>
</g>
<path d="M39.6562 18.5H38.375V8.82031C38.276 8.91927 38.1302 9.03385 37.9375 9.16406C37.75 9.28906 37.5365 9.41406 37.2969 9.53906C37.0625 9.66406 36.8125 9.78125 36.5469 9.89062C36.2865 10 36.0312 10.0859 35.7812 10.1484V8.85156C36.0625 8.77344 36.3594 8.66927 36.6719 8.53906C36.9896 8.40365 37.2995 8.25521 37.6016 8.09375C37.9089 7.92708 38.1979 7.75521 38.4688 7.57812C38.7396 7.39583 38.974 7.21875 39.1719 7.04688H39.6562V18.5Z" fill="#536471"/>
</svg>
